<svg width="60" height="60" viewBox="0 0 60 60" fill="none" xmlns="http://www.w3.org/2000/svg">
<circle cx="30" cy="30" r="30" fill="#1B365D"/>
<path d="M29.9998 37.3333C31.6665 37.3333 33.0834 36.7502 34.2505 35.584C35.4176 34.4178 36.0007 33.0009 35.9998 31.3333C35.9989 29.6658 35.4158 28.2493 34.2505 27.084C33.0852 25.9187 31.6683 25.3351 29.9998 25.3333C28.3314 25.3316 26.9149 25.9151 25.7505 27.084C24.5861 28.2529 24.0025 29.6693 23.9998 31.3333C23.9972 32.9973 24.5807 34.4142 25.7505 35.584C26.9203 36.7538 28.3367 37.3369 29.9998 37.3333ZM29.9998 34.6667C29.0665 34.6667 28.2776 34.3444 27.6332 33.7C26.9887 33.0556 26.6665 32.2667 26.6665 31.3333C26.6665 30.4 26.9887 29.6111 27.6332 28.9667C28.2776 28.3222 29.0665 28 29.9998 28C30.9332 28 31.7221 28.3222 32.3665 28.9667C33.0109 29.6111 33.3332 30.4 33.3332 31.3333C33.3332 32.2667 33.0109 33.0556 32.3665 33.7C31.7221 34.3444 30.9332 34.6667 29.9998 34.6667ZM19.3332 42C18.5998 42 17.9723 41.7391 17.4505 41.2173C16.9287 40.6956 16.6674 40.0676 16.6665 39.3333V23.3333C16.6665 22.6 16.9278 21.9724 17.4505 21.4507C17.9732 20.9289 18.6007 20.6676 19.3332 20.6667H23.5332L25.1998 18.8667C25.4443 18.6 25.7389 18.3889 26.0838 18.2333C26.4287 18.0778 26.7896 18 27.1665 18H32.8332C33.2109 18 33.5723 18.0778 33.9172 18.2333C34.2621 18.3889 34.5563 18.6 34.7998 18.8667L36.4665 20.6667H40.6665C41.3998 20.6667 42.0278 20.928 42.5505 21.4507C43.0732 21.9733 43.3341 22.6009 43.3332 23.3333V39.3333C43.3332 40.0667 43.0723 40.6947 42.5505 41.2173C42.0287 41.74 41.4007 42.0009 40.6665 42H19.3332Z" fill="white"/>
</svg>
