<svg width="242" height="183" viewBox="0 0 242 183" fill="none" xmlns="http://www.w3.org/2000/svg">
<path d="M237.726 66.8898C238.146 93.4698 238.256 120.31 237.836 146.89H225.276C203.176 146.89 181.036 147.35 158.946 146.33C181.726 126.24 184.146 91.2198 164.166 68.3298C164.026 68.1698 163.866 68.0398 163.726 67.8898L237.726 66.8898Z" fill="#94542D"/>
<path d="M237.846 146.89C237.666 158.55 241.856 176.8 225.846 179.67H19.1761C19.7061 174.97 16.8661 174.63 15.8461 169.67L210.016 170.23C220.406 167.98 226.336 156.94 225.296 146.9H237.856L237.846 146.89Z" fill="#F58816"/>
<path d="M100.316 29.6598C114.556 29.6098 128.796 29.6198 143.036 29.6598C149.996 29.6798 156.976 29.4698 163.936 29.4898C170.026 29.5098 176.116 29.3398 182.206 29.3698C183.696 29.3698 185.196 29.3998 186.686 29.4098C188.226 34.5598 183.806 35.9598 180.006 37.4398L21.116 37.9998C13.026 40.4298 14.846 59.8498 14.726 67.4398H4.17604C4.26604 59.7098 2.93604 40.1098 7.28604 34.6598C13.216 27.2298 23.736 29.8498 32.026 29.6498C41.416 29.4298 50.846 29.6898 60.246 29.5998C66.566 29.5498 72.866 29.2398 79.196 29.2198C85.526 29.1998 91.416 29.6698 97.516 29.6498C98.446 29.6498 99.386 29.6498 100.326 29.6498L100.316 29.6598Z" fill="#F9D1AB"/>
<path d="M163.936 29.4898C156.976 29.4698 150.006 29.6898 143.036 29.6598L142.566 27.4298C141.056 23.9598 143.896 17.7298 139.726 15.8798C138.076 15.1498 105.326 15.1998 103.616 15.7698C98.316 17.5298 100.836 23.2298 100.286 27.4398L100.316 29.6598C99.376 29.6598 98.436 29.6598 97.506 29.6598C91.406 29.6798 85.286 29.2098 79.186 29.2298C78.806 27.9098 80.046 27.7198 80.636 27.0098C84.426 22.4798 93.756 7.15984 97.146 4.78984C99.886 2.86984 142.396 2.39984 144.726 3.88984C147.706 5.78984 159.066 22.2198 162.186 26.4398C162.886 27.3898 163.836 28.1998 163.936 29.4998V29.4898Z" fill="#F9C795"/>
<path d="M14.736 67.4398C14.326 93.1098 14.816 120.57 15.296 146.33H4.50605C4.00605 120.16 3.85605 93.6098 4.17605 67.4398H14.736Z" fill="#B99992"/>
<path d="M212.466 29.6298C203.896 29.3698 195.266 29.4698 186.686 29.4098C185.196 29.4098 183.696 29.3798 182.206 29.3698L181.956 26.8798C182.326 22.9498 180.486 18.0698 184.736 15.7698C185.816 15.1898 207.766 15.0398 209.176 15.5498C214.556 17.4598 211.916 22.9698 212.506 27.4398L212.466 29.6198V29.6298Z" fill="#73D5F6"/>
<path d="M60.236 29.6098C50.836 29.6898 41.416 29.4298 32.016 29.6598L32.126 27.4398C32.416 23.7698 29.896 18.8398 33.616 16.2198C34.686 15.4598 57.266 15.0998 58.616 15.7798C62.936 17.9498 60.776 23.6898 60.666 27.4398L60.236 29.6198V29.6098Z" fill="#73D5F6"/>
<path d="M15.2861 146.33C15.2861 146.52 15.2861 146.7 15.2861 146.89C15.4261 153.82 14.4861 163.08 15.8461 169.67C16.8661 174.63 19.7161 174.97 19.1761 179.67C0.256053 179.62 4.75605 159.12 4.50605 146.34H15.2861V146.33Z" fill="#F9D1AB"/>
<path d="M83.3961 146.33C104.706 165.38 137.566 165.19 158.956 146.33C181.046 147.34 203.196 146.89 225.286 146.89C226.326 156.94 220.396 167.98 210.006 170.22L15.8361 169.66C14.4761 163.08 15.4161 153.82 15.2761 146.88L82.9461 145.88C83.0961 146.02 83.2361 146.19 83.3861 146.32L83.3961 146.33Z" fill="#F9C795"/>
<path d="M78.616 67.6598C78.476 67.8198 78.306 67.9498 78.176 68.0998C58.316 90.9198 60.736 125.53 82.956 145.88C83.106 146.02 83.246 146.19 83.396 146.32C83.236 146.18 83.106 146.02 82.956 145.88L15.286 146.88C15.286 146.69 15.286 146.51 15.286 146.32C14.806 120.56 14.316 93.0998 14.726 67.4298C35.846 67.4298 57.046 66.8798 78.166 68.0998C78.306 67.9398 78.476 67.8098 78.606 67.6598H78.616Z" fill="#94542D"/>
<path d="M143.036 29.6598C128.796 29.6198 114.556 29.6098 100.316 29.6598L100.286 27.4398C100.836 23.2298 98.3161 17.5298 103.616 15.7698C105.326 15.1998 138.076 15.1498 139.726 15.8798C143.896 17.7298 141.056 23.9698 142.566 27.4298L143.036 29.6598Z" fill="#73D5F6"/>
<path d="M237.726 66.8898L163.726 67.8898C163.866 68.0498 164.036 68.1798 164.166 68.3298C164.026 68.1698 163.866 68.0398 163.726 67.8898C151.606 54.3398 132.366 46.2098 114.166 48.5598C101.086 50.2498 87.296 57.8998 78.606 67.6698C78.466 67.8298 78.296 67.9598 78.166 68.1098C57.046 66.8898 35.846 67.4398 14.726 67.4398C14.846 59.8398 13.026 40.4198 21.116 37.9998L180.006 37.4398C183.796 35.9598 188.226 34.5598 186.686 29.4098C195.266 29.4698 203.896 29.3698 212.466 29.6298C220.476 29.8698 228.976 27.1398 234.946 34.6698C239.716 40.6898 237.596 58.8498 237.726 66.8898Z" fill="#F9C795"/>
<path d="M203.596 39.3898C209.226 39.4398 214.866 39.3098 220.496 39.3398L219.446 60.4398L182.616 58.9998C182.116 55.4698 180.966 41.8698 183.566 39.7998C184.446 39.0998 200.926 39.3598 203.586 39.3898H203.596Z" fill="#73D5F6" stroke="#883A07" stroke-width="3.33" stroke-linecap="round" stroke-linejoin="round"/>
<path d="M189.456 44.6598C191.276 44.2198 205.196 44.2598 205.286 46.0498C203.456 48.2598 190.306 56.8998 188.346 56.3298C185.426 53.6998 185.346 45.6698 189.456 44.6598Z" fill="#C7EEFA"/>
<path d="M164.176 68.3298C184.156 91.2198 181.736 126.24 158.956 146.33C137.576 165.19 104.706 165.38 83.3961 146.33C83.2361 146.19 83.1061 146.03 82.9561 145.89C60.7361 125.54 58.3161 90.9298 78.1761 68.1098C78.3161 67.9498 78.4861 67.8198 78.6161 67.6698C87.3061 57.8998 101.096 50.2498 114.176 48.5598C132.366 46.2098 151.606 54.3398 163.736 67.8898C163.876 68.0498 164.046 68.1798 164.176 68.3298Z" fill="#E4E4E4" stroke="#883B09" stroke-width="3.89" stroke-linecap="round" stroke-linejoin="round"/>
<path d="M117.506 65.2198C167.406 60.0998 179.016 138.34 125.286 144.11C72.4061 149.78 64.8361 70.6198 117.506 65.2198Z" fill="#5FAAE0" stroke="#2571BC" stroke-width="2.78" stroke-linecap="round" stroke-linejoin="round"/>
<path d="M139.176 91.8898C146.776 101.82 142.886 117.39 132.236 123.56C111.586 135.51 89.7361 110.71 103.066 91.8898C111.006 80.6798 130.916 81.0898 139.176 91.8898Z" fill="#2B79C5"/>
<path d="M139.176 91.8899C130.916 81.0899 111.006 80.6799 103.066 91.8899C98.446 91.2299 99.276 85.1799 101.396 82.1699C105.676 76.0999 120.486 74.2199 127.226 75.2299C133.966 76.2399 149.426 85.4999 139.166 91.8999L139.176 91.8899Z" fill="#CDDEF1"/>
<path d="M162.186 26.4298C159.076 22.2098 147.706 5.77985 144.726 3.87985C142.396 2.38985 99.886 2.85985 97.146 4.77985C93.756 7.15985 84.416 22.4698 80.636 26.9998" stroke="#873908" stroke-width="5.56" stroke-linecap="round" stroke-linejoin="round"/>
<path d="M97.506 29.6598C91.406 29.6798 85.286 29.2098 79.186 29.2298C73.086 29.2498 66.566 29.5598 60.236 29.6098C50.836 29.6898 41.416 29.4298 32.016 29.6598C23.736 29.8598 13.206 27.2398 7.27604 34.6698C2.92604 40.1198 4.25604 59.7098 4.16604 67.4498C3.84604 93.6198 4.00604 120.17 4.49604 146.34C4.73604 159.12 0.24604 179.63 19.166 179.67H225.836C241.846 176.81 237.656 158.56 237.836 146.89C238.256 120.31 238.146 93.4699 237.726 66.8899C237.596 58.8499 239.716 40.6898 234.946 34.6698C228.976 27.1398 220.476 29.8698 212.466 29.6298C203.896 29.3698 195.266 29.4698 186.686 29.4098C185.196 29.4098 183.696 29.3798 182.206 29.3698C176.116 29.3398 170.026 29.4998 163.936 29.4898C156.976 29.4698 150.006 29.6898 143.036 29.6598C128.796 29.6198 114.556 29.6098 100.316 29.6598C99.376 29.6598 98.436 29.6598 97.506 29.6598Z" stroke="#873908" stroke-width="6.11" stroke-linecap="round" stroke-linejoin="round"/>
<path d="M60.666 27.4398C60.786 23.6898 62.936 17.9498 58.616 15.7798C57.266 15.0998 34.686 15.4698 33.616 16.2198C29.896 18.8398 32.416 23.7698 32.126 27.4398" stroke="#873908" stroke-width="5.56" stroke-linecap="round" stroke-linejoin="round"/>
<path d="M212.506 27.4398C211.916 22.9698 214.546 17.4598 209.176 15.5498C207.756 15.0498 185.806 15.1898 184.736 15.7698C180.486 18.0698 182.326 22.9498 181.956 26.8798" stroke="#873908" stroke-width="5.56" stroke-linecap="round" stroke-linejoin="round"/>
<path d="M142.566 27.4398C141.056 23.9698 143.896 17.7398 139.726 15.8898C138.076 15.1598 105.326 15.2098 103.616 15.7798C98.316 17.5398 100.836 23.2398 100.286 27.4498" stroke="#873908" stroke-width="5.56" stroke-linecap="round" stroke-linejoin="round"/>
</svg>
