<svg width="25" height="24" viewBox="0 0 25 24" fill="none" xmlns="http://www.w3.org/2000/svg">
<path fill-rule="evenodd" clip-rule="evenodd" d="M12.5 2.00002C6.977 2.00002 2.5 6.47702 2.5 12C2.49915 13.4734 2.8239 14.9288 3.451 16.262L2.521 20.799C2.48789 20.961 2.49546 21.1287 2.54304 21.287C2.59062 21.4454 2.67672 21.5895 2.79364 21.7064C2.91055 21.8233 3.05463 21.9094 3.21298 21.957C3.37133 22.0046 3.53901 22.0121 3.701 21.979L8.238 21.049C9.532 21.659 10.978 21.999 12.5 21.999C18.023 21.999 22.5 17.523 22.5 11.999C22.5 6.47702 18.023 1.99902 12.5 1.99902" fill="#1B365D"/>
</svg>
