<svg width="25" height="24" viewBox="0 0 25 24" fill="none" xmlns="http://www.w3.org/2000/svg">
<path d="M12.5 8C12.5 8 12.5 8 13.26 7C14.14 5.84 15.44 5 17 5C19.49 5 21.5 7.01 21.5 9.5C21.5 10.43 21.22 11.29 20.74 12C19.93 13.21 12.5 21 12.5 21C12.5 21 5.07 13.21 4.26 12C3.78 11.29 3.5 10.43 3.5 9.5C3.5 7.01 5.51 5 8 5C9.56 5 10.87 5.84 11.74 7C12.5 8 12.5 8 12.5 8Z" fill="#1B365D"/>
<path d="M12.5 8C12.5 8 12.5 8 11.74 7C10.86 5.84 9.56 5 8 5C5.51 5 3.5 7.01 3.5 9.5C3.5 10.43 3.78 11.29 4.26 12C5.07 13.21 12.5 21 12.5 21M12.5 8C12.5 8 12.5 8 13.26 7C14.14 5.84 15.44 5 17 5C19.49 5 21.5 7.01 21.5 9.5C21.5 10.43 21.22 11.29 20.74 12C19.93 13.21 12.5 21 12.5 21" stroke="#1B365D" stroke-width="2" stroke-linecap="round" stroke-linejoin="round"/>
</svg>
