<svg width="60" height="60" viewBox="0 0 60 60" fill="none" xmlns="http://www.w3.org/2000/svg">
<circle cx="30" cy="30" r="30" fill="#1B365D"/>
<path d="M31.5419 15C33.2294 15.0045 34.0859 15.0135 34.8254 15.0345L35.1164 15.045C35.4524 15.057 35.7839 15.072 36.1844 15.09C37.7804 15.165 38.8694 15.417 39.8249 15.7875C40.8149 16.1685 41.6489 16.6845 42.4829 17.517C43.2459 18.2666 43.8362 19.1737 44.2124 20.175C44.5829 21.1305 44.8349 22.2195 44.9099 23.817C44.9279 24.216 44.9429 24.5475 44.9549 24.885L44.9639 25.176C44.9864 25.914 44.9954 26.7705 44.9984 28.458L44.9999 29.577V31.542C45.0035 32.6361 44.992 33.7302 44.9654 34.824L44.9564 35.115C44.9444 35.4525 44.9294 35.784 44.9114 36.183C44.8364 37.7805 44.5814 38.868 44.2124 39.825C43.8362 40.8263 43.2459 41.7334 42.4829 42.483C41.7333 43.246 40.8262 43.8363 39.8249 44.2125C38.8694 44.583 37.7804 44.835 36.1844 44.91L35.1164 44.955L34.8254 44.964C34.0859 44.985 33.2294 44.9955 31.5419 44.9985L30.4229 45H28.4594C27.3648 45.0039 26.2702 44.9924 25.1759 44.9655L24.8849 44.9565C24.5288 44.943 24.1728 44.9275 23.8169 44.91C22.2209 44.835 21.1319 44.583 20.1749 44.2125C19.1741 43.8361 18.2675 43.2459 17.5184 42.483C16.7548 41.7336 16.164 40.8264 15.7874 39.825C15.4169 38.8695 15.1649 37.7805 15.0899 36.183L15.0449 35.115L15.0374 34.824C15.0097 33.7302 14.9972 32.6361 14.9999 31.542V28.458C14.9957 27.3639 15.0067 26.2698 15.0329 25.176L15.0434 24.885C15.0554 24.5475 15.0704 24.216 15.0884 23.817C15.1634 22.2195 15.4154 21.132 15.7859 20.175C16.1634 19.1733 16.7552 18.2662 17.5199 17.517C18.2686 16.7543 19.1747 16.1641 20.1749 15.7875C21.1319 15.417 22.2194 15.165 23.8169 15.09C24.2159 15.072 24.5489 15.057 24.8849 15.045L25.1759 15.036C26.2697 15.0093 27.3638 14.9978 28.4579 15.0015L31.5419 15ZM29.9999 22.5C28.0108 22.5 26.1031 23.2902 24.6966 24.6967C23.2901 26.1032 22.4999 28.0109 22.4999 30C22.4999 31.9891 23.2901 33.8968 24.6966 35.3033C26.1031 36.7098 28.0108 37.5 29.9999 37.5C31.989 37.5 33.8967 36.7098 35.3032 35.3033C36.7097 33.8968 37.4999 31.9891 37.4999 30C37.4999 28.0109 36.7097 26.1032 35.3032 24.6967C33.8967 23.2902 31.989 22.5 29.9999 22.5ZM29.9999 25.5C30.5908 25.4999 31.176 25.6162 31.722 25.8423C32.268 26.0683 32.7641 26.3997 33.1821 26.8175C33.6 27.2353 33.9316 27.7313 34.1578 28.2772C34.384 28.8232 34.5005 29.4083 34.5006 29.9993C34.5007 30.5902 34.3844 31.1754 34.1584 31.7214C33.9323 32.2674 33.6009 32.7635 33.1831 33.1814C32.7653 33.5994 32.2693 33.9309 31.7234 34.1572C31.1775 34.3834 30.5923 34.4999 30.0014 34.5C28.8079 34.5 27.6633 34.0259 26.8194 33.182C25.9755 32.3381 25.5014 31.1935 25.5014 30C25.5014 28.8065 25.9755 27.6619 26.8194 26.818C27.6633 25.9741 28.8079 25.5 30.0014 25.5M37.8764 20.25C37.3791 20.25 36.9022 20.4475 36.5506 20.7992C36.1989 21.1508 36.0014 21.6277 36.0014 22.125C36.0014 22.6223 36.1989 23.0992 36.5506 23.4508C36.9022 23.8025 37.3791 24 37.8764 24C38.3737 24 38.8506 23.8025 39.2022 23.4508C39.5538 23.0992 39.7514 22.6223 39.7514 22.125C39.7514 21.6277 39.5538 21.1508 39.2022 20.7992C38.8506 20.4475 38.3737 20.25 37.8764 20.25Z" fill="white"/>
</svg>
