<svg width="60" height="60" viewBox="0 0 60 60" fill="none" xmlns="http://www.w3.org/2000/svg">
<circle cx="30" cy="30" r="30" fill="#1B365D"/>
<path d="M30 45C27.925 45 25.975 44.606 24.15 43.818C22.325 43.03 20.7375 41.9615 19.3875 40.6125C18.0375 39.2635 16.969 37.676 16.182 35.85C15.395 34.024 15.001 32.074 15 30C14.999 27.926 15.393 25.976 16.182 24.15C16.971 22.324 18.0395 20.7365 19.3875 19.3875C20.7355 18.0385 22.323 16.97 24.15 16.182C25.977 15.394 27.927 15 30 15C32.073 15 34.023 15.394 35.85 16.182C37.677 16.97 39.2645 18.0385 40.6125 19.3875C41.9605 20.7365 43.0295 22.324 43.8195 24.15C44.6095 25.976 45.003 27.926 45 30C44.997 32.074 44.603 34.024 43.818 35.85C43.033 37.676 41.9645 39.2635 40.6125 40.6125C39.2605 41.9615 37.673 43.0305 35.85 43.8195C34.027 44.6085 32.077 45.002 30 45ZM30 42C33.35 42 36.1875 40.8375 38.5125 38.5125C40.8375 36.1875 42 33.35 42 30C42 29.825 41.994 29.6435 41.982 29.4555C41.97 29.2675 41.9635 29.1115 41.9625 28.9875C41.8375 29.7125 41.5 30.3125 40.95 30.7875C40.4 31.2625 39.75 31.5 39 31.5H36C35.175 31.5 34.469 31.2065 33.882 30.6195C33.295 30.0325 33.001 29.326 33 28.5V27H27V24C27 23.175 27.294 22.469 27.882 21.882C28.47 21.295 29.176 21.001 30 21H31.5C31.5 20.425 31.6565 19.919 31.9695 19.482C32.2825 19.045 32.6635 18.6885 33.1125 18.4125C32.6125 18.2875 32.1065 18.1875 31.5945 18.1125C31.0825 18.0375 30.551 18 30 18C26.65 18 23.8125 19.1625 21.4875 21.4875C19.1625 23.8125 18 26.65 18 30H25.5C27.15 30 28.5625 30.5875 29.7375 31.7625C30.9125 32.9375 31.5 34.35 31.5 36V37.5H27V41.625C27.5 41.75 27.994 41.844 28.482 41.907C28.97 41.97 29.476 42.001 30 42Z" fill="white"/>
</svg>
