<svg width="28" height="28" viewBox="0 0 28 28" fill="none" xmlns="http://www.w3.org/2000/svg">
<path d="M24.3292 7.46918C23.7769 7.46918 23.3292 7.02147 23.3292 6.46918V4.73731C23.3292 4.18502 22.8815 3.7373 22.3292 3.7373H2.4043C1.85201 3.7373 1.4043 4.18502 1.4043 4.7373V19.5303C1.4043 20.0826 1.85201 20.5303 2.4043 20.5303H3.6698C4.22208 20.5303 4.6698 20.978 4.6698 21.5303V23.2622C4.6698 23.8145 5.11751 24.2622 5.6698 24.2622H25.5947C26.147 24.2622 26.5947 23.8145 26.5947 23.2622V8.46918C26.5947 7.91689 26.147 7.46918 25.5947 7.46918H24.3292ZM3.33792 19.5984C2.78564 19.5984 2.33792 19.1507 2.33792 18.5984V5.67093C2.33792 5.11865 2.78564 4.67093 3.33792 4.67093H21.3964C21.9487 4.67093 22.3964 5.11864 22.3964 5.67093V6.47005C22.3964 7.02234 21.9487 7.47005 21.3964 7.47005H5.6698C5.11751 7.47005 4.6698 7.91777 4.6698 8.47005V18.5984C4.6698 19.1507 4.22208 19.5984 3.6698 19.5984H3.33792ZM25.6619 22.3303C25.6619 22.8826 25.2142 23.3303 24.6619 23.3303H6.60342C6.05114 23.3303 5.60342 22.8826 5.60342 22.3303V9.40281C5.60342 8.85052 6.05114 8.4028 6.60342 8.4028H24.6619C25.2142 8.4028 25.6619 8.85052 25.6619 9.4028V22.3303Z" fill="white"/>
</svg>
