<svg width="60" height="60" viewBox="0 0 60 60" fill="none" xmlns="http://www.w3.org/2000/svg">
<circle cx="30" cy="30" r="30" fill="#1B365D"/>
<g clip-path="url(#clip0_2045_827)">
<path fill-rule="evenodd" clip-rule="evenodd" d="M14 27.7143C14.0004 26.046 14.3329 24.3946 14.978 22.8561C15.6231 21.3176 16.5679 19.923 17.7575 18.7533C18.947 17.5837 20.3575 16.6625 21.9066 16.0435C23.4557 15.4245 25.1126 15.12 26.7806 15.1477C28.4486 15.1755 30.0944 15.535 31.6221 16.2052C33.1498 16.8754 34.5288 17.843 35.6788 19.0516C36.8287 20.2601 37.7267 21.6855 38.3202 23.2445C38.9138 24.8036 39.1911 26.4652 39.136 28.1326L39.1429 28.2857V39.7143C39.1429 40.1689 39.3235 40.605 39.645 40.9265C39.9665 41.248 40.4025 41.4286 40.8571 41.4286C41.3118 41.4286 41.7478 41.248 42.0693 40.9265C42.3908 40.605 42.5714 40.1689 42.5714 39.7143C42.5714 39.2596 42.752 38.8236 43.0735 38.5021C43.395 38.1806 43.8311 38 44.2857 38C44.7404 38 45.1764 38.1806 45.4979 38.5021C45.8194 38.8236 46 39.2596 46 39.7143C46 41.0783 45.4582 42.3864 44.4937 43.3508C43.5292 44.3153 42.2211 44.8571 40.8571 44.8571C39.4932 44.8571 38.1851 44.3153 37.2206 43.3508C36.2561 42.3864 35.7143 41.0783 35.7143 39.7143V36.3429C33.9865 38.1737 31.7488 39.4436 29.291 39.9882C26.8332 40.5328 24.2685 40.327 21.929 39.3973C19.5896 38.4677 17.5831 36.8571 16.1694 34.7741C14.7557 32.6911 14 30.2317 14 27.7143ZM28.5714 22C28.5714 22.5304 28.3607 23.0391 27.9856 23.4142C27.6106 23.7893 27.1019 24 26.5714 24C26.041 24 25.5323 23.7893 25.1572 23.4142C24.7821 23.0391 24.5714 22.5304 24.5714 22C24.5714 21.4696 24.7821 20.9609 25.1572 20.5858C25.5323 20.2107 26.041 20 26.5714 20C27.1019 20 27.6106 20.2107 27.9856 20.5858C28.3607 20.9609 28.5714 21.4696 28.5714 22ZM21.3029 29.7326C21.8333 29.7326 22.342 29.5219 22.7171 29.1468C23.0921 28.7717 23.3029 28.263 23.3029 27.7326C23.3029 27.2021 23.0921 26.6934 22.7171 26.3184C22.342 25.9433 21.8333 25.7326 21.3029 25.7326C20.7724 25.7326 20.2637 25.9433 19.8886 26.3184C19.5136 26.6934 19.3029 27.2021 19.3029 27.7326C19.3029 28.263 19.5136 28.7717 19.8886 29.1468C20.2637 29.5219 20.7724 29.7326 21.3029 29.7326ZM33.84 27.7326C33.84 28.263 33.6293 28.7717 33.2542 29.1468C32.8791 29.5219 32.3704 29.7326 31.84 29.7326C31.3096 29.7326 30.8009 29.5219 30.4258 29.1468C30.0507 28.7717 29.84 28.263 29.84 27.7326C29.84 27.2021 30.0507 26.6934 30.4258 26.3184C30.8009 25.9433 31.3096 25.7326 31.84 25.7326C32.3704 25.7326 32.8791 25.9433 33.2542 26.3184C33.6293 26.6934 33.84 27.2021 33.84 27.7326ZM26.5714 35.1246C27.1019 35.1246 27.6106 34.9139 27.9856 34.5388C28.3607 34.1637 28.5714 33.655 28.5714 33.1246C28.5714 32.5941 28.3607 32.0854 27.9856 31.7104C27.6106 31.3353 27.1019 31.1246 26.5714 31.1246C26.041 31.1246 25.5323 31.3353 25.1572 31.7104C24.7821 32.0854 24.5714 32.5941 24.5714 33.1246C24.5714 33.655 24.7821 34.1637 25.1572 34.5388C25.5323 34.9139 26.041 35.1246 26.5714 35.1246Z" fill="white"/>
</g>
<defs>
<clipPath id="clip0_2045_827">
<rect width="32" height="32" fill="white" transform="translate(14 14)"/>
</clipPath>
</defs>
</svg>
